<?xml version="1.0" encoding="utf-8"?><!DOCTYPE svg PUBLIC "-//W3C//DTD SVG 1.1//EN" "http://www.w3.org/Graphics/SVG/1.1/DTD/svg11.dtd"><svg version="1.1" baseProfile="full" xmlns="http://www.w3.org/2000/svg" xmlns:xlink="http://www.w3.org/1999/xlink" xmlns:ev="http://www.w3.org/2001/xml-events"   height="620px"   width="326px" ><path stroke="rgb( 14, 5, 10 )" stroke-width="0px" stroke-linecap="butt" stroke-linejoin="miter" fill="rgb( 244, 244, 244 )" d="M284,620 C284,620 42,620 42,620 C18.804,620 0,601.196 0,578 C0,578 0,42 0,42 C0,18.804 18.804,0 42,0 C42,0 284,0 284,0 C307.196,0 326,18.804 326,42 C326,42 326,578 326,578 C326,601.196 307.196,620 284,620 ZM323,97 C323,97 3,97 3,97 C3,97 3,583 3,583 C3,583 323,583 323,583 C323,583 323,97 323,97 Z "/><path stroke="rgb( 14, 5, 10 )" stroke-width="0px" stroke-linecap="butt" stroke-linejoin="miter" fill="rgb( 51, 51, 51 )" d="M3,37 C3,37 323,37 323,37 C323,37 323,97 323,97 C323,97 3,97 3,97 C3,97 3,37 3,37 Z "/><path stroke="rgb( 14, 5, 10 )" stroke-width="0px" stroke-linecap="butt" stroke-linejoin="miter" fill="rgb( 255, 255, 255 )" d="M318,49 C318,49 317,49 317,49 C317,49 317,51 317,51 C317,51 299,51 299,51 C299,51 299,43 299,43 C299,43 317,43 317,43 C317,43 317,45 317,45 C317,45 318,45 318,45 C318,45 318,49 318,49 Z "/><path stroke="rgb( 14, 5, 10 )" stroke-width="0px" stroke-linecap="butt" stroke-linejoin="miter" fill="rgb( 51, 51, 51 )" d="M300,44 C300,44 316,44 316,44 C316,44 316,50 316,50 C316,50 300,50 300,50 C300,50 300,44 300,44 Z "/><path stroke="rgb( 14, 5, 10 )" stroke-width="0px" stroke-linecap="butt" stroke-linejoin="miter" fill="rgb( 255, 255, 255 )" d="M301,45 C301,45 307,45 307,45 C307,45 307,49 307,49 C307,49 301,49 301,49 C301,49 301,45 301,45 Z "/><path stroke="rgb( 14, 5, 10 )" stroke-width="0px" stroke-linecap="butt" stroke-linejoin="miter" fill="rgb( 255, 255, 255 )" d="M31,49 C29.895,49 29,48.105 29,47 C29,45.895 29.895,45 31,45 C32.105,45 33,45.895 33,47 C33,48.105 32.105,49 31,49 ZM24,49 C22.895,49 22,48.105 22,47 C22,45.895 22.895,45 24,45 C25.105,45 26,45.895 26,47 C26,48.105 25.105,49 24,49 ZM17,49 C15.895,49 15,48.105 15,47 C15,45.895 15.895,45 17,45 C18.105,45 19,45.895 19,47 C19,48.105 18.105,49 17,49 ZM10,49 C8.89499999999998,49 8,48.105 8,47 C8,45.895 8.89499999999998,45 10,45 C11.105,45 12,45.895 12,47 C12,48.105 11.105,49 10,49 Z "/><path stroke="rgb( 14, 5, 10 )" stroke-width="0px" stroke-linecap="butt" stroke-linejoin="miter" opacity="0.2" fill="rgb( 255, 255, 255 )" d="M153.5,44 C153.5,44 172.5,44 172.5,44 C173.881,44 175,45.119 175,46.5 C175,46.5 175,47.5 175,47.5 C175,48.881 173.881,50 172.5,50 C172.5,50 153.5,50 153.5,50 C152.119,50 151,48.881 151,47.5 C151,47.5 151,46.5 151,46.5 C151,45.119 152.119,44 153.5,44 Z "/></svg>